<?xml version="1.0" encoding="UTF-8"?>
<svg width="512px" height="512px" viewBox="0 0 512 512" version="1.1" xmlns="http://www.w3.org/2000/svg" xmlns:xlink="http://www.w3.org/1999/xlink">
    <title>icon</title>
    <defs>
        <path d="M302.433121,100.66935 L302.433121,100.66935 C290.822232,82.6761882 263.988412,82.6761882 252.376194,100.66935 L137.250711,279.05855 C133.956285,284.162698 128.215294,287.257933 122.043728,287.257933 C107.885274,287.257933 99.2804311,272.000064 106.835416,260.292229 L246.175392,44.3820825 C252.264564,34.946945 252.264564,22.9298465 246.175392,13.4960085 C234.563173,-4.49845291 207.730683,-4.49845291 196.117136,13.494709 L3.2982305,312.274496 C-5.5910037,326.049719 4.53280945,344 21.1896582,344 L153.665694,344 C160.926985,344 167.681952,340.357707 171.557121,334.353056 L302.433121,131.555424 C308.522293,122.121586 308.522293,110.104488 302.433121,100.66935" id="path-1"></path>
        <linearGradient x1="90.0458253%" y1="-11.6936601%" x2="26.2640841%" y2="109.183245%" id="linearGradient-3">
            <stop stop-color="#1F41EF" offset="0%"></stop>
            <stop stop-color="#15F7CC" offset="100%"></stop>
        </linearGradient>
        <path d="M196.176173,189 C209.423616,189 217.456655,174.668781 210.355232,163.70565 L157.144777,81.5657279 L157.144777,81.5670234 L106.475452,2.84959775 C104.029465,-0.949865917 98.3789846,-0.949865917 95.9329978,2.84959775 L4.58840487,144.754967 C-7.77763781,163.964734 6.30495642,189 29.4764202,189 C39.5775134,189 48.9729573,183.920662 54.3644356,175.545779 L86.0816568,126.270635 C93.0985073,115.372275 109.309943,115.372275 116.325472,126.270635 C120.004363,131.986023 120.004363,139.264982 116.325472,144.979075 L91.9501753,182.84676 C90.2309809,185.517914 92.1893561,189 95.4123501,189 L196.176173,189" id="path-4"></path>
        <linearGradient x1="120.803431%" y1="-27.2880465%" x2="6.03040693%" y2="145.400212%" id="linearGradient-6">
            <stop stop-color="#1739E7" offset="0%"></stop>
            <stop stop-color="#00F4F1" offset="100%"></stop>
        </linearGradient>
    </defs>
    <g id="icon" stroke="none" stroke-width="1" fill="none" fill-rule="evenodd">
        <rect fill="#FFFFFF" opacity="0" x="0" y="0" width="512" height="512"></rect>
        <g id="Group" transform="translate(33.000000, 84.000000)">
            <g id="Group-3">
                <mask id="mask-2" fill="white">
                    <use xlink:href="#path-1"></use>
                </mask>
                <g id="Clip-2"></g>
                <path d="M302.433121,100.66935 L302.433121,100.66935 C290.822232,82.6761882 263.988412,82.6761882 252.376194,100.66935 L137.250711,279.05855 C133.956285,284.162698 128.215294,287.257933 122.043728,287.257933 C107.885274,287.257933 99.2804311,272.000064 106.835416,260.292229 L246.175392,44.3820825 C252.264564,34.946945 252.264564,22.9298465 246.175392,13.4960085 C234.563173,-4.49845291 207.730683,-4.49845291 196.117136,13.494709 L3.2982305,312.274496 C-5.5910037,326.049719 4.53280945,344 21.1896582,344 L153.665694,344 C160.926985,344 167.681952,340.357707 171.557121,334.353056 L302.433121,131.555424 C308.522293,122.121586 308.522293,110.104488 302.433121,100.66935" id="Fill-1" fill="url(#linearGradient-3)" mask="url(#mask-2)"></path>
            </g>
            <g id="Group-6" transform="translate(233.000000, 155.000000)">
                <mask id="mask-5" fill="white">
                    <use xlink:href="#path-4"></use>
                </mask>
                <g id="Clip-5"></g>
                <path d="M196.176173,189 C209.423616,189 217.456655,174.668781 210.355232,163.70565 L157.144777,81.5657279 L157.144777,81.5670234 L106.475452,2.84959775 C104.029465,-0.949865917 98.3789846,-0.949865917 95.9329978,2.84959775 L4.58840487,144.754967 C-7.77763781,163.964734 6.30495642,189 29.4764202,189 C39.5775134,189 48.9729573,183.920662 54.3644356,175.545779 L86.0816568,126.270635 C93.0985073,115.372275 109.309943,115.372275 116.325472,126.270635 C120.004363,131.986023 120.004363,139.264982 116.325472,144.979075 L91.9501753,182.84676 C90.2309809,185.517914 92.1893561,189 95.4123501,189 L196.176173,189" id="Fill-4" fill="url(#linearGradient-6)" mask="url(#mask-5)"></path>
            </g>
        </g>
    </g>
</svg>